<svg width="223" height="58" viewBox="0 0 223 58" fill="none" xmlns="http://www.w3.org/2000/svg">
<path fill-rule="evenodd" clip-rule="evenodd" d="M91 8V31H78.3539V8H91ZM35.4602 15.4441C36.0624 15.4441 36.6603 15.4853 37.2539 15.5677C37.8475 15.6502 38.3852 15.8192 38.8669 16.0747C39.3487 16.3303 39.7358 16.6889 40.0283 17.1505C40.3208 17.6122 40.467 18.214 40.467 18.9559V25.5344C40.467 26.029 40.4971 26.3918 40.5574 26.6226C40.6176 26.8534 40.8198 26.9688 41.1639 26.9688C41.3531 26.9688 41.5768 26.9276 41.8349 26.8452V28.4774C41.4564 28.6918 40.9316 28.7989 40.2606 28.7989C39.6928 28.7989 39.2411 28.6464 38.9056 28.3414C38.5701 28.0364 38.4024 27.5376 38.4024 26.8452C37.8002 27.5376 37.099 28.0364 36.299 28.3414C35.4989 28.6464 34.6343 28.7989 33.7052 28.7989C33.103 28.7989 32.5309 28.733 31.989 28.6011C31.447 28.4692 30.9781 28.2631 30.5824 27.9828C30.1867 27.7025 29.8727 27.3357 29.6404 26.8823C29.4081 26.4289 29.292 25.8806 29.292 25.2376C29.292 24.5122 29.421 23.9186 29.6791 23.457C29.9372 22.9953 30.277 22.6203 30.6985 22.3317C31.1201 22.0432 31.6018 21.8247 32.1438 21.6763C32.6858 21.528 33.2407 21.4043 33.8085 21.3054C34.4107 21.19 34.9827 21.1034 35.5247 21.0457C36.0667 20.988 36.5441 20.9056 36.9571 20.7984C37.37 20.6912 37.6969 20.5346 37.9378 20.3285C38.1787 20.1224 38.2991 19.8215 38.2991 19.4258C38.2991 18.9642 38.2088 18.5932 38.0281 18.3129C37.8475 18.0326 37.6152 17.8183 37.3313 17.6699C37.0474 17.5215 36.7291 17.4226 36.3764 17.3731C36.0237 17.3237 35.6753 17.2989 35.3312 17.2989C34.402 17.2989 33.6278 17.4679 33.0084 17.8059C32.389 18.1439 32.0535 18.7828 32.0019 19.7226H29.8081C29.8426 18.9312 30.0146 18.2634 30.3243 17.7194C30.634 17.1753 31.0469 16.7342 31.5631 16.3962C32.0793 16.0582 32.6686 15.8151 33.331 15.6667C33.9934 15.5183 34.7031 15.4441 35.4602 15.4441ZM62.8172 15.4441C64.0044 15.4441 64.9894 15.679 65.7722 16.1489C66.5551 16.6188 67.1831 17.2165 67.6562 17.9419C68.1294 18.6674 68.4563 19.4588 68.637 20.3161C68.8176 21.1735 68.8908 21.9896 68.8563 22.7645H58.8685C58.8513 23.3251 58.9201 23.8568 59.0749 24.3597C59.2298 24.8625 59.4793 25.3077 59.8234 25.6952C60.1675 26.0826 60.6062 26.3918 61.1396 26.6226C61.673 26.8534 62.301 26.9688 63.0236 26.9688C63.9527 26.9688 64.7141 26.7627 65.3077 26.3505C65.9013 25.9383 66.2927 25.3118 66.482 24.471H68.6499C68.3574 25.9054 67.7122 26.9853 66.7142 27.7108C65.7163 28.4362 64.4603 28.7989 62.9462 28.7989C61.8795 28.7989 60.9547 28.6341 60.1718 28.3043C59.3889 27.9746 58.7308 27.5129 58.1974 26.9194C57.6641 26.3258 57.264 25.6168 56.9974 24.7925C56.7307 23.9681 56.5801 23.0695 56.5457 22.0968C56.5457 21.124 56.7006 20.2337 57.0103 19.4258C57.32 18.6179 57.7544 17.9172 58.3136 17.3237C58.8728 16.7301 59.5352 16.2685 60.3008 15.9387C61.0665 15.609 61.9053 15.4441 62.8172 15.4441ZM84.1349 15.4441C83.55 15.4441 82.9607 15.5142 82.3671 15.6543C81.7735 15.7944 81.2401 16.0088 80.7669 16.2973C80.2938 16.5858 79.9067 16.9609 79.6056 17.4226C79.3045 17.8842 79.1539 18.4366 79.1539 19.0796C79.1539 19.9039 79.369 20.547 79.7991 21.0086C80.2293 21.4703 80.7669 21.8289 81.4122 22.0844C82.0574 22.34 82.7585 22.5378 83.5155 22.678C84.2726 22.8181 84.9737 22.9747 85.6189 23.1479C86.2641 23.321 86.8018 23.5477 87.232 23.828C87.6621 24.1082 87.8772 24.5204 87.8772 25.0645C87.8772 25.4602 87.7739 25.7858 87.5675 26.0414C87.361 26.297 87.0986 26.4907 86.7803 26.6226C86.462 26.7545 86.1136 26.8452 85.7351 26.8946C85.3565 26.9441 84.9952 26.9688 84.6511 26.9688C84.2038 26.9688 83.7693 26.9276 83.3478 26.8452C82.9263 26.7627 82.5477 26.6267 82.2122 26.4371C81.8767 26.2475 81.6057 25.9919 81.3992 25.6704C81.1928 25.3489 81.0809 24.9573 81.0637 24.4957H78.87C78.9044 25.2871 79.0765 25.959 79.3862 26.5113C79.6959 27.0636 80.1088 27.5088 80.625 27.8468C81.1412 28.1848 81.7348 28.428 82.4058 28.5763C83.0768 28.7247 83.7822 28.7989 84.5221 28.7989C85.1931 28.7989 85.8684 28.7371 86.548 28.6134C87.2277 28.4898 87.8385 28.2713 88.3804 27.9581C88.9224 27.6448 89.3612 27.2326 89.6967 26.7215C90.0322 26.2104 90.1999 25.5674 90.1999 24.7925C90.1999 24.1824 90.0752 23.6713 89.8257 23.2591C89.5762 22.847 89.2493 22.5048 88.845 22.2328C88.4407 21.9608 87.9761 21.7423 87.4513 21.5774C86.9266 21.4125 86.3889 21.2724 85.8383 21.157C85.3221 21.0416 84.806 20.9303 84.2898 20.8231C83.7736 20.716 83.3091 20.5841 82.8961 20.4274C82.4832 20.2708 82.1434 20.0729 81.8767 19.8339C81.61 19.5948 81.4767 19.2939 81.4767 18.9312C81.4767 18.6014 81.5627 18.3335 81.7348 18.1274C81.9068 17.9213 82.1305 17.7565 82.4058 17.6328C82.6811 17.5091 82.9865 17.4226 83.322 17.3731C83.6575 17.3237 83.9887 17.2989 84.3156 17.2989C84.6769 17.2989 85.0339 17.336 85.3867 17.4102C85.7394 17.4844 86.062 17.6039 86.3545 17.7688C86.647 17.9337 86.8878 18.1522 87.0771 18.4242C87.2664 18.6962 87.3782 19.0383 87.4126 19.4505H89.6063C89.5547 18.6756 89.3827 18.0285 89.0902 17.5091C88.7977 16.9898 88.4062 16.5776 87.9159 16.2726C87.4255 15.9676 86.862 15.7532 86.2254 15.6296C85.5888 15.5059 84.892 15.4441 84.1349 15.4441ZM22.2721 15.4441C22.9431 15.4441 23.5496 15.5142 24.0916 15.6543C24.6336 15.7944 25.0981 16.0129 25.4852 16.3097C25.8724 16.6065 26.1735 16.9898 26.3885 17.4597C26.6036 17.9296 26.7111 18.4943 26.7111 19.1538V28.5269H24.5174V20.143C24.5174 19.7473 24.483 19.3763 24.4142 19.0301C24.3454 18.6839 24.2163 18.383 24.0271 18.1274C23.8378 17.8719 23.5754 17.6699 23.2399 17.5215C22.9044 17.3731 22.4699 17.2989 21.9366 17.2989C20.8526 17.2989 20.0009 17.5957 19.3815 18.1892C18.7621 18.7828 18.4524 19.5742 18.4524 20.5634V28.5269H16.2587V20.143C16.2587 19.7308 16.22 19.3516 16.1426 19.0054C16.0651 18.6591 15.9318 18.3582 15.7425 18.1027C15.5533 17.8471 15.2995 17.6493 14.9812 17.5091C14.6629 17.369 14.2543 17.2989 13.7553 17.2989C13.1187 17.2989 12.5724 17.4226 12.1164 17.6699C11.6605 17.9172 11.2906 18.214 11.0067 18.5602C10.7228 18.9065 10.5163 19.2651 10.3873 19.636C10.2582 20.007 10.1937 20.3161 10.1937 20.5634V28.5269H8V15.7409H10.0647V17.6204H10.1163C11.1142 16.1695 12.5509 15.4441 14.4263 15.4441C15.2522 15.4441 16.0006 15.609 16.6716 15.9387C17.3427 16.2685 17.8158 16.829 18.0911 17.6204C18.5385 16.928 19.1277 16.3921 19.859 16.0129C20.5902 15.6337 21.3946 15.4441 22.2721 15.4441ZM46.1965 10.8688V21.3301L52.2873 15.7409H55.2295L49.9387 20.3903L55.6166 28.5269H52.8293L48.2612 21.8495L46.1965 23.6796V28.5269H44.0028V10.8688H46.1965ZM78.07 15.4441V17.6699C77.1925 17.6699 76.444 17.7853 75.8246 18.0161C75.2052 18.247 74.7063 18.5849 74.3277 19.0301C73.9492 19.4753 73.6739 20.0152 73.5019 20.65C73.3298 21.2848 73.2438 22.0143 73.2438 22.8387V28.5269H71.0501V15.7409H73.1147V18.4366H73.1664C73.6997 17.3978 74.3535 16.6312 75.1278 16.1366C75.9021 15.6419 76.8828 15.4111 78.07 15.4441ZM38.2733 21.9237C37.998 22.1215 37.6367 22.2658 37.1894 22.3565C36.742 22.4471 36.2732 22.5213 35.7828 22.579C35.2924 22.6367 34.7978 22.7027 34.2988 22.7769C33.7999 22.8511 33.3525 22.9706 32.9568 23.1355C32.561 23.3004 32.2384 23.5353 31.989 23.8403C31.7395 24.1453 31.6147 24.5616 31.6147 25.0892C31.6147 25.4355 31.6879 25.7281 31.8341 25.9672C31.9804 26.2063 32.1696 26.4 32.4019 26.5484C32.6342 26.6968 32.9052 26.8039 33.2149 26.8699C33.5246 26.9358 33.8515 26.9688 34.1956 26.9688C34.9182 26.9688 35.5376 26.874 36.0538 26.6844C36.57 26.4948 36.9915 26.2557 37.3184 25.9672C37.6453 25.6787 37.8862 25.3654 38.041 25.0274C38.1959 24.6894 38.2733 24.372 38.2733 24.0753V21.9237ZM62.6881 17.2989C62.1203 17.2989 61.6085 17.3937 61.1525 17.5833C60.6966 17.7729 60.3051 18.0326 59.9782 18.3624C59.6513 18.6921 59.3932 19.0754 59.204 19.5124C59.0147 19.9493 58.9029 20.4151 58.8685 20.9097H66.5336C66.4992 20.4151 66.383 19.9452 66.1852 19.5C65.9873 19.0548 65.7206 18.6715 65.3851 18.35C65.0496 18.0285 64.6539 17.7729 64.1979 17.5833C63.742 17.3937 63.2387 17.2989 62.6881 17.2989Z" fill="#FFE600"/>
<path d="M104.052 24.123C103.873 25.7702 103.282 27.0306 102.279 27.9043C101.284 28.778 99.9554 29.2148 98.2939 29.2148C97.1338 29.2148 96.1061 28.9248 95.2109 28.3447C94.3229 27.7646 93.6354 26.9447 93.1484 25.8848C92.6615 24.8177 92.4144 23.6003 92.4072 22.2324V20.2021C92.4072 18.8128 92.6507 17.5811 93.1377 16.5068C93.6247 15.4326 94.3229 14.6055 95.2324 14.0254C96.1491 13.4382 97.2018 13.1445 98.3906 13.1445C100.066 13.1445 101.388 13.5993 102.354 14.5088C103.328 15.4111 103.894 16.6608 104.052 18.2578H102.72C102.39 15.6009 100.947 14.2725 98.3906 14.2725C96.9727 14.2725 95.8411 14.8024 94.9961 15.8623C94.1582 16.9222 93.7393 18.3867 93.7393 20.2559V22.168C93.7393 23.9727 94.1475 25.4121 94.9639 26.4863C95.7874 27.5605 96.8975 28.0977 98.2939 28.0977C99.6761 28.0977 100.718 27.7682 101.42 27.1094C102.122 26.4434 102.555 25.4479 102.72 24.123H104.052ZM106.694 23.0166C106.694 21.8994 106.909 20.8932 107.338 19.998C107.775 19.1029 108.388 18.4082 109.175 17.9141C109.97 17.4128 110.869 17.1621 111.872 17.1621C113.419 17.1621 114.672 17.7064 115.631 18.7949C116.591 19.8763 117.071 21.3122 117.071 23.1025V23.3711C117.071 24.4954 116.852 25.5088 116.416 26.4111C115.986 27.3063 115.377 27.9974 114.589 28.4844C113.802 28.9714 112.903 29.2148 111.893 29.2148C110.353 29.2148 109.1 28.6742 108.133 27.5928C107.174 26.5042 106.694 25.0648 106.694 23.2744V23.0166ZM107.983 23.3711C107.983 24.7604 108.341 25.9027 109.057 26.7979C109.78 27.6859 110.726 28.1299 111.893 28.1299C113.053 28.1299 113.991 27.6859 114.708 26.7979C115.431 25.9027 115.793 24.7246 115.793 23.2637V23.0166C115.793 22.1286 115.628 21.3158 115.298 20.5781C114.969 19.8405 114.507 19.2712 113.913 18.8701C113.318 18.4619 112.638 18.2578 111.872 18.2578C110.726 18.2578 109.791 18.709 109.068 19.6113C108.345 20.5065 107.983 21.681 107.983 23.1348V23.3711ZM121.346 17.377L121.389 19.2676C121.818 18.5658 122.356 18.0394 123 17.6885C123.645 17.3376 124.361 17.1621 125.149 17.1621C126.982 17.1621 128.146 17.9141 128.64 19.418C129.055 18.6947 129.61 18.1396 130.305 17.7529C130.999 17.359 131.766 17.1621 132.604 17.1621C135.096 17.1621 136.367 18.5228 136.417 21.2441V29H135.128V21.3408C135.121 20.3024 134.895 19.5326 134.451 19.0312C134.014 18.5299 133.298 18.2793 132.303 18.2793C131.379 18.2936 130.598 18.5944 129.961 19.1816C129.324 19.7617 128.969 20.4707 128.898 21.3086V29H127.609V21.2441C127.601 20.2487 127.365 19.5075 126.9 19.0205C126.441 18.5264 125.732 18.2793 124.773 18.2793C123.963 18.2793 123.269 18.512 122.689 18.9775C122.109 19.4359 121.679 20.1198 121.4 21.0293V29H120.11V17.377H121.346ZM141.294 17.377L141.337 19.2676C141.766 18.5658 142.303 18.0394 142.948 17.6885C143.592 17.3376 144.309 17.1621 145.096 17.1621C146.93 17.1621 148.093 17.9141 148.588 19.418C149.003 18.6947 149.558 18.1396 150.253 17.7529C150.947 17.359 151.714 17.1621 152.551 17.1621C155.044 17.1621 156.315 18.5228 156.365 21.2441V29H155.076V21.3408C155.069 20.3024 154.843 19.5326 154.399 19.0312C153.962 18.5299 153.246 18.2793 152.251 18.2793C151.327 18.2936 150.546 18.5944 149.909 19.1816C149.271 19.7617 148.917 20.4707 148.845 21.3086V29H147.556V21.2441C147.549 20.2487 147.313 19.5075 146.847 19.0205C146.389 18.5264 145.68 18.2793 144.72 18.2793C143.911 18.2793 143.216 18.512 142.636 18.9775C142.056 19.4359 141.627 20.1198 141.347 21.0293V29H140.058V17.377H141.294ZM167.547 27.5283C166.774 28.6527 165.538 29.2148 163.841 29.2148C162.602 29.2148 161.66 28.8568 161.016 28.1406C160.371 27.4173 160.042 26.3503 160.028 24.9395V17.377H161.306V24.7783C161.306 26.9912 162.201 28.0977 163.991 28.0977C165.853 28.0977 167.031 27.3278 167.526 25.7881V17.377H168.815V29H167.569L167.547 27.5283ZM173.831 17.377L173.874 19.3643C174.311 18.6481 174.855 18.1038 175.507 17.7314C176.158 17.3519 176.878 17.1621 177.666 17.1621C178.912 17.1621 179.839 17.513 180.448 18.2148C181.057 18.9167 181.365 19.9694 181.372 21.373V29H180.094V21.3623C180.086 20.3239 179.864 19.5505 179.428 19.042C178.998 18.5335 178.307 18.2793 177.354 18.2793C176.559 18.2793 175.854 18.5299 175.238 19.0312C174.629 19.5254 174.178 20.195 173.885 21.04V29H172.606V17.377H173.831ZM186.581 29H185.292V17.377H186.581V29ZM185.067 14.0146C185.067 13.7712 185.146 13.5671 185.303 13.4023C185.461 13.2305 185.675 13.1445 185.948 13.1445C186.22 13.1445 186.435 13.2305 186.592 13.4023C186.757 13.5671 186.839 13.7712 186.839 14.0146C186.839 14.2581 186.757 14.4622 186.592 14.627C186.435 14.7917 186.22 14.874 185.948 14.874C185.675 14.874 185.461 14.7917 185.303 14.627C185.146 14.4622 185.067 14.2581 185.067 14.0146ZM192.521 14.4014V17.377H194.928V18.4297H192.521V26.1748C192.521 26.8193 192.636 27.2992 192.865 27.6143C193.101 27.9294 193.492 28.0869 194.036 28.0869C194.251 28.0869 194.598 28.0511 195.078 27.9795L195.132 29.0322C194.795 29.154 194.337 29.2148 193.757 29.2148C192.876 29.2148 192.235 28.9606 191.834 28.4521C191.433 27.9365 191.232 27.181 191.232 26.1855V18.4297H189.095V17.377H191.232V14.4014H192.521ZM201.716 27.1523L205.111 17.377H206.497L201.534 30.9766L201.276 31.5781C200.638 32.9889 199.654 33.6943 198.322 33.6943C198.014 33.6943 197.684 33.6442 197.333 33.5439L197.323 32.4805L197.989 32.5449C198.619 32.5449 199.127 32.3874 199.514 32.0723C199.908 31.7643 200.241 31.2308 200.513 30.4717L201.082 28.9033L196.7 17.377H198.107L201.716 27.1523Z" fill="white"/>
</svg>
